<svg xmlns="http://www.w3.org/2000/svg" viewBox="0 0 1000 300" role="img" aria-labelledby="title desc">
  <title id="title">Autonexa AI</title>
  <desc id="desc">Autonexa AI logo with a blue and cyan orbit around an A</desc>
  <defs>
    <linearGradient id="blue" x1="0" y1="1" x2="1" y2="0">
      <stop offset="0" stop-color="#00e8f2"/>
      <stop offset=".52" stop-color="#087eff"/>
      <stop offset="1" stop-color="#1451ff"/>
    </linearGradient>
    <linearGradient id="cyan" x1="0" y1="1" x2="1" y2="0">
      <stop stop-color="#007cff"/>
      <stop offset=".5" stop-color="#00e5f1"/>
      <stop offset="1" stop-color="#00b9ff"/>
    </linearGradient>
    <linearGradient id="ai" x1="0" y1="1" x2="1" y2="0">
      <stop stop-color="#154fff"/>
      <stop offset="1" stop-color="#00e5f1"/>
    </linearGradient>
  </defs>
  <g transform="translate(18 20)">
    <path fill="url(#blue)" d="M170 245 257 67c19-39 73-39 93 0l79 157-54 23-71-132-76 130z"/>
    <path fill="url(#blue)" d="m208 245 84-172c12-24 43-31 66-15l31 23-88 181c-23 46-91 42-107-6z"/>
    <path fill="url(#blue)" d="m352 245-80-171c-12-25-43-32-66-16l-31 23 87 181c22 46 91 42 108-6z" opacity=".92"/>
    <path fill="url(#cyan)" d="M112 202c50 37 143 40 232 11 59-19 108-49 130-78-3 36-56 81-130 108-100 36-204 27-247-7-18-14-16-25 15-34z"/>
    <path fill="#071024" d="M112 202c38 22 107 24 177 8 72-16 139-49 185-86-36 42-101 84-176 105-85 24-167 17-201-10-12-10-10-14 15-17z" opacity=".65"/>
  </g>
  <g fill="#f7f8fc" font-family="Arial, Helvetica, sans-serif" font-weight="700">
    <text x="385" y="154" font-size="70" letter-spacing="4">AUTONEXA</text>
  </g>
  <rect x="824" y="88" width="132" height="78" rx="28" fill="none" stroke="url(#ai)" stroke-width="7"/>
  <text x="846" y="143" fill="url(#ai)" font-family="Arial, Helvetica, sans-serif" font-size="49" font-weight="700">AI</text>
  <text x="388" y="212" fill="#f7f8fc" font-family="Arial, Helvetica, sans-serif" font-size="19" letter-spacing="10">AUTOMATE · ENGAGE · GROW</text>
</svg>
